<svg id="visual" viewBox="0 0 1000 600" width="1000" height="600" xmlns="http://www.w3.org/2000/svg" xmlns:xlink="http://www.w3.org/1999/xlink" version="1.1"><rect x="0" y="0" width="1000" height="600" fill="#944E32"></rect><defs><linearGradient id="grad1_0" x1="40%" y1="0%" x2="100%" y2="100%"><stop offset="16.666666666666664%" stop-color="#944e32" stop-opacity="1"></stop><stop offset="83.33333333333334%" stop-color="#944e32" stop-opacity="1"></stop></linearGradient></defs><defs><linearGradient id="grad2_0" x1="0%" y1="0%" x2="60%" y2="100%"><stop offset="16.666666666666664%" stop-color="#944e32" stop-opacity="1"></stop><stop offset="83.33333333333334%" stop-color="#944e32" stop-opacity="1"></stop></linearGradient></defs><g transform="translate(1000, 0)"><path d="M0 524.8C-57.4 495.1 -114.8 465.3 -184.8 446.2C-254.9 427.1 -337.5 418.7 -371.1 371.1C-404.6 323.5 -389.1 236.7 -406.5 168.4C-423.9 100 -474.4 50 -524.8 0L0 0Z" fill="#FFECCE"></path></g><g transform="translate(0, 600)"><path d="M0 -524.8C72.6 -522.4 145.1 -520 200.8 -484.8C256.6 -449.6 295.5 -381.6 323.9 -323.9C352.3 -266.1 370.1 -218.7 401.9 -166.5C433.6 -114.2 479.2 -57.1 524.8 0L0 0Z" fill="#FFECCE"></path></g></svg>